<mxfile host="app.diagrams.net" modified="2023-10-29T08:40:09.081Z" agent="Mozilla/5.0 (Windows NT 10.0; Win64; x64) AppleWebKit/537.36 (KHTML, like Gecko) Chrome/118.0.0.0 Safari/537.36" etag="uYEJn-LWVafmXrzAbbn0" version="21.7.1" type="device">
  <diagram name="Page-1" id="gztlPg2CvQh3Qtl_B6ly">
    <mxGraphModel dx="1956" dy="991" grid="1" gridSize="10" guides="1" tooltips="1" connect="1" arrows="1" fold="1" page="1" pageScale="1" pageWidth="850" pageHeight="1100" math="0" shadow="0">
      <root>
        <mxCell id="0" />
        <mxCell id="1" parent="0" />
        <mxCell id="DAKQLm33R4ar7NBVHNQ8-10" value="&lt;div&gt;Output: Selamat Datang&lt;/div&gt;&lt;div&gt;Output: Film&amp;nbsp;&lt;/div&gt;&lt;div&gt;Tersedia &lt;br&gt;&lt;/div&gt;" style="shape=parallelogram;perimeter=parallelogramPerimeter;whiteSpace=wrap;html=1;fixedSize=1;" parent="1" vertex="1">
          <mxGeometry x="370" y="204" width="120" height="60" as="geometry" />
        </mxCell>
        <mxCell id="DAKQLm33R4ar7NBVHNQ8-11" value="Ouput: [Nama-nama film]" style="shape=parallelogram;perimeter=parallelogramPerimeter;whiteSpace=wrap;html=1;fixedSize=1;" parent="1" vertex="1">
          <mxGeometry x="370" y="300" width="120" height="60" as="geometry" />
        </mxCell>
        <mxCell id="DAKQLm33R4ar7NBVHNQ8-87" value="" style="edgeStyle=orthogonalEdgeStyle;rounded=0;orthogonalLoop=1;jettySize=auto;html=1;" parent="1" source="DAKQLm33R4ar7NBVHNQ8-10" target="DAKQLm33R4ar7NBVHNQ8-11" edge="1">
          <mxGeometry relative="1" as="geometry" />
        </mxCell>
        <mxCell id="DAKQLm33R4ar7NBVHNQ8-12" value="Output: Pilih film no berapa" style="shape=parallelogram;perimeter=parallelogramPerimeter;whiteSpace=wrap;html=1;fixedSize=1;" parent="1" vertex="1">
          <mxGeometry x="370" y="390" width="120" height="60" as="geometry" />
        </mxCell>
        <mxCell id="DAKQLm33R4ar7NBVHNQ8-54" value="" style="edgeStyle=orthogonalEdgeStyle;rounded=0;orthogonalLoop=1;jettySize=auto;html=1;" parent="1" source="DAKQLm33R4ar7NBVHNQ8-11" target="DAKQLm33R4ar7NBVHNQ8-12" edge="1">
          <mxGeometry relative="1" as="geometry" />
        </mxCell>
        <mxCell id="DAKQLm33R4ar7NBVHNQ8-13" value="Input: pilihan" style="shape=parallelogram;perimeter=parallelogramPerimeter;whiteSpace=wrap;html=1;fixedSize=1;" parent="1" vertex="1">
          <mxGeometry x="370" y="480" width="120" height="60" as="geometry" />
        </mxCell>
        <mxCell id="DAKQLm33R4ar7NBVHNQ8-55" value="" style="edgeStyle=orthogonalEdgeStyle;rounded=0;orthogonalLoop=1;jettySize=auto;html=1;" parent="1" source="DAKQLm33R4ar7NBVHNQ8-12" target="DAKQLm33R4ar7NBVHNQ8-13" edge="1">
          <mxGeometry relative="1" as="geometry" />
        </mxCell>
        <mxCell id="DAKQLm33R4ar7NBVHNQ8-14" value="1" style="rhombus;whiteSpace=wrap;html=1;" parent="1" vertex="1">
          <mxGeometry x="100" y="620" width="80" height="80" as="geometry" />
        </mxCell>
        <mxCell id="DAKQLm33R4ar7NBVHNQ8-15" value="2" style="rhombus;whiteSpace=wrap;html=1;" parent="1" vertex="1">
          <mxGeometry x="240" y="620" width="80" height="80" as="geometry" />
        </mxCell>
        <mxCell id="DAKQLm33R4ar7NBVHNQ8-16" value="3" style="rhombus;whiteSpace=wrap;html=1;" parent="1" vertex="1">
          <mxGeometry x="390" y="620" width="80" height="80" as="geometry" />
        </mxCell>
        <mxCell id="DAKQLm33R4ar7NBVHNQ8-61" value="" style="edgeStyle=orthogonalEdgeStyle;rounded=0;orthogonalLoop=1;jettySize=auto;html=1;" parent="1" source="DAKQLm33R4ar7NBVHNQ8-13" target="DAKQLm33R4ar7NBVHNQ8-16" edge="1">
          <mxGeometry relative="1" as="geometry" />
        </mxCell>
        <mxCell id="DAKQLm33R4ar7NBVHNQ8-17" value="4" style="rhombus;whiteSpace=wrap;html=1;" parent="1" vertex="1">
          <mxGeometry x="535" y="620" width="80" height="80" as="geometry" />
        </mxCell>
        <mxCell id="DAKQLm33R4ar7NBVHNQ8-18" value="default" style="rhombus;whiteSpace=wrap;html=1;" parent="1" vertex="1">
          <mxGeometry x="690" y="620" width="80" height="80" as="geometry" />
        </mxCell>
        <mxCell id="DAKQLm33R4ar7NBVHNQ8-20" value="filmPilihan+=film1;hargaPerTiket = 50000;" style="rounded=0;whiteSpace=wrap;html=1;" parent="1" vertex="1">
          <mxGeometry x="80" y="750" width="120" height="60" as="geometry" />
        </mxCell>
        <mxCell id="DAKQLm33R4ar7NBVHNQ8-66" value="" style="edgeStyle=orthogonalEdgeStyle;rounded=0;orthogonalLoop=1;jettySize=auto;html=1;" parent="1" source="DAKQLm33R4ar7NBVHNQ8-14" target="DAKQLm33R4ar7NBVHNQ8-20" edge="1">
          <mxGeometry relative="1" as="geometry" />
        </mxCell>
        <mxCell id="DAKQLm33R4ar7NBVHNQ8-21" value="filmPilihan+=film2;hargaPerTiket = 45000;" style="rounded=0;whiteSpace=wrap;html=1;" parent="1" vertex="1">
          <mxGeometry x="220" y="750" width="120" height="60" as="geometry" />
        </mxCell>
        <mxCell id="DAKQLm33R4ar7NBVHNQ8-67" value="" style="edgeStyle=orthogonalEdgeStyle;rounded=0;orthogonalLoop=1;jettySize=auto;html=1;" parent="1" source="DAKQLm33R4ar7NBVHNQ8-15" target="DAKQLm33R4ar7NBVHNQ8-21" edge="1">
          <mxGeometry relative="1" as="geometry" />
        </mxCell>
        <mxCell id="DAKQLm33R4ar7NBVHNQ8-22" value="filmPilihan+=film4;hargaPerTiket = 40000;" style="rounded=0;whiteSpace=wrap;html=1;" parent="1" vertex="1">
          <mxGeometry x="515" y="750" width="120" height="60" as="geometry" />
        </mxCell>
        <mxCell id="DAKQLm33R4ar7NBVHNQ8-69" value="" style="edgeStyle=orthogonalEdgeStyle;rounded=0;orthogonalLoop=1;jettySize=auto;html=1;" parent="1" source="DAKQLm33R4ar7NBVHNQ8-17" target="DAKQLm33R4ar7NBVHNQ8-22" edge="1">
          <mxGeometry relative="1" as="geometry" />
        </mxCell>
        <mxCell id="DAKQLm33R4ar7NBVHNQ8-24" value="filmPilihan+=film3;hargaPerTiket = 50000;" style="rounded=0;whiteSpace=wrap;html=1;" parent="1" vertex="1">
          <mxGeometry x="370" y="750" width="120" height="60" as="geometry" />
        </mxCell>
        <mxCell id="DAKQLm33R4ar7NBVHNQ8-68" value="" style="edgeStyle=orthogonalEdgeStyle;rounded=0;orthogonalLoop=1;jettySize=auto;html=1;" parent="1" source="DAKQLm33R4ar7NBVHNQ8-16" target="DAKQLm33R4ar7NBVHNQ8-24" edge="1">
          <mxGeometry relative="1" as="geometry" />
        </mxCell>
        <mxCell id="DAKQLm33R4ar7NBVHNQ8-25" value="Ouput: film tidak tersedia" style="shape=parallelogram;perimeter=parallelogramPerimeter;whiteSpace=wrap;html=1;fixedSize=1;" parent="1" vertex="1">
          <mxGeometry x="670" y="750" width="120" height="60" as="geometry" />
        </mxCell>
        <mxCell id="DAKQLm33R4ar7NBVHNQ8-70" value="" style="edgeStyle=orthogonalEdgeStyle;rounded=0;orthogonalLoop=1;jettySize=auto;html=1;" parent="1" source="DAKQLm33R4ar7NBVHNQ8-18" target="DAKQLm33R4ar7NBVHNQ8-25" edge="1">
          <mxGeometry relative="1" as="geometry" />
        </mxCell>
        <mxCell id="DAKQLm33R4ar7NBVHNQ8-27" value="Output: Mau berapa tiket" style="shape=parallelogram;perimeter=parallelogramPerimeter;whiteSpace=wrap;html=1;fixedSize=1;" parent="1" vertex="1">
          <mxGeometry x="370" y="911" width="120" height="60" as="geometry" />
        </mxCell>
        <mxCell id="DAKQLm33R4ar7NBVHNQ8-89" value="" style="edgeStyle=orthogonalEdgeStyle;rounded=0;orthogonalLoop=1;jettySize=auto;html=1;" parent="1" source="DAKQLm33R4ar7NBVHNQ8-27" target="DAKQLm33R4ar7NBVHNQ8-28" edge="1">
          <mxGeometry relative="1" as="geometry" />
        </mxCell>
        <mxCell id="DAKQLm33R4ar7NBVHNQ8-86" value="" style="edgeStyle=orthogonalEdgeStyle;rounded=0;orthogonalLoop=1;jettySize=auto;html=1;" parent="1" source="DAKQLm33R4ar7NBVHNQ8-51" target="DAKQLm33R4ar7NBVHNQ8-10" edge="1">
          <mxGeometry relative="1" as="geometry" />
        </mxCell>
        <mxCell id="DAKQLm33R4ar7NBVHNQ8-51" value="&lt;font style=&quot;font-size: 14px;&quot;&gt;Proses Input&lt;br&gt;&lt;/font&gt;" style="ellipse;whiteSpace=wrap;html=1;aspect=fixed;" parent="1" vertex="1">
          <mxGeometry x="390" y="80" width="80" height="80" as="geometry" />
        </mxCell>
        <mxCell id="DAKQLm33R4ar7NBVHNQ8-60" value="" style="endArrow=none;html=1;rounded=0;" parent="1" edge="1">
          <mxGeometry width="50" height="50" relative="1" as="geometry">
            <mxPoint x="140" y="570" as="sourcePoint" />
            <mxPoint x="730" y="570" as="targetPoint" />
          </mxGeometry>
        </mxCell>
        <mxCell id="DAKQLm33R4ar7NBVHNQ8-62" value="" style="endArrow=classic;html=1;rounded=0;" parent="1" edge="1">
          <mxGeometry width="50" height="50" relative="1" as="geometry">
            <mxPoint x="574.5" y="570" as="sourcePoint" />
            <mxPoint x="574.5" y="620" as="targetPoint" />
          </mxGeometry>
        </mxCell>
        <mxCell id="DAKQLm33R4ar7NBVHNQ8-63" value="" style="endArrow=classic;html=1;rounded=0;" parent="1" edge="1">
          <mxGeometry width="50" height="50" relative="1" as="geometry">
            <mxPoint x="139.5" y="570" as="sourcePoint" />
            <mxPoint x="139.5" y="620" as="targetPoint" />
          </mxGeometry>
        </mxCell>
        <mxCell id="DAKQLm33R4ar7NBVHNQ8-64" value="" style="endArrow=classic;html=1;rounded=0;" parent="1" edge="1">
          <mxGeometry width="50" height="50" relative="1" as="geometry">
            <mxPoint x="279.5" y="570" as="sourcePoint" />
            <mxPoint x="279.5" y="620" as="targetPoint" />
          </mxGeometry>
        </mxCell>
        <mxCell id="DAKQLm33R4ar7NBVHNQ8-65" value="" style="endArrow=classic;html=1;rounded=0;" parent="1" edge="1">
          <mxGeometry width="50" height="50" relative="1" as="geometry">
            <mxPoint x="729.5" y="570" as="sourcePoint" />
            <mxPoint x="729.5" y="620" as="targetPoint" />
          </mxGeometry>
        </mxCell>
        <mxCell id="DAKQLm33R4ar7NBVHNQ8-71" value="" style="endArrow=none;html=1;rounded=0;" parent="1" edge="1">
          <mxGeometry width="50" height="50" relative="1" as="geometry">
            <mxPoint x="139" y="870" as="sourcePoint" />
            <mxPoint x="580" y="870" as="targetPoint" />
          </mxGeometry>
        </mxCell>
        <mxCell id="DAKQLm33R4ar7NBVHNQ8-78" value="" style="endArrow=none;html=1;rounded=0;" parent="1" edge="1">
          <mxGeometry width="50" height="50" relative="1" as="geometry">
            <mxPoint x="140" y="870" as="sourcePoint" />
            <mxPoint x="139.5" y="810" as="targetPoint" />
          </mxGeometry>
        </mxCell>
        <mxCell id="DAKQLm33R4ar7NBVHNQ8-79" value="" style="endArrow=none;html=1;rounded=0;" parent="1" edge="1">
          <mxGeometry width="50" height="50" relative="1" as="geometry">
            <mxPoint x="280" y="870" as="sourcePoint" />
            <mxPoint x="279.5" y="810" as="targetPoint" />
          </mxGeometry>
        </mxCell>
        <mxCell id="DAKQLm33R4ar7NBVHNQ8-81" value="" style="endArrow=none;html=1;rounded=0;" parent="1" edge="1">
          <mxGeometry width="50" height="50" relative="1" as="geometry">
            <mxPoint x="430" y="870" as="sourcePoint" />
            <mxPoint x="429.5" y="810" as="targetPoint" />
          </mxGeometry>
        </mxCell>
        <mxCell id="DAKQLm33R4ar7NBVHNQ8-82" value="" style="endArrow=none;html=1;rounded=0;" parent="1" edge="1">
          <mxGeometry width="50" height="50" relative="1" as="geometry">
            <mxPoint x="575" y="870" as="sourcePoint" />
            <mxPoint x="574.5" y="810" as="targetPoint" />
          </mxGeometry>
        </mxCell>
        <mxCell id="DAKQLm33R4ar7NBVHNQ8-84" value="END" style="rounded=1;whiteSpace=wrap;html=1;" parent="1" vertex="1">
          <mxGeometry x="670" y="851" width="120" height="60" as="geometry" />
        </mxCell>
        <mxCell id="DAKQLm33R4ar7NBVHNQ8-85" value="" style="edgeStyle=orthogonalEdgeStyle;rounded=0;orthogonalLoop=1;jettySize=auto;html=1;" parent="1" source="DAKQLm33R4ar7NBVHNQ8-25" target="DAKQLm33R4ar7NBVHNQ8-84" edge="1">
          <mxGeometry relative="1" as="geometry" />
        </mxCell>
        <mxCell id="DAKQLm33R4ar7NBVHNQ8-88" value="" style="edgeStyle=orthogonalEdgeStyle;rounded=0;orthogonalLoop=1;jettySize=auto;html=1;" parent="1" edge="1">
          <mxGeometry relative="1" as="geometry">
            <mxPoint x="430" y="859" as="sourcePoint" />
            <mxPoint x="430" y="909" as="targetPoint" />
          </mxGeometry>
        </mxCell>
        <mxCell id="m2Lsev2go2SQ9onNHyc8-6" value="" style="group" vertex="1" connectable="0" parent="1">
          <mxGeometry x="240" y="1010" width="375" height="720" as="geometry" />
        </mxCell>
        <mxCell id="DAKQLm33R4ar7NBVHNQ8-28" value="Input: jumlahTiket" style="shape=parallelogram;perimeter=parallelogramPerimeter;whiteSpace=wrap;html=1;fixedSize=1;" parent="m2Lsev2go2SQ9onNHyc8-6" vertex="1">
          <mxGeometry x="130" width="120" height="60" as="geometry" />
        </mxCell>
        <mxCell id="DAKQLm33R4ar7NBVHNQ8-29" value="Output: Mau tiket vip ?" style="shape=parallelogram;perimeter=parallelogramPerimeter;whiteSpace=wrap;html=1;fixedSize=1;" parent="m2Lsev2go2SQ9onNHyc8-6" vertex="1">
          <mxGeometry x="130" y="100" width="120" height="60" as="geometry" />
        </mxCell>
        <mxCell id="DAKQLm33R4ar7NBVHNQ8-91" value="" style="edgeStyle=orthogonalEdgeStyle;rounded=0;orthogonalLoop=1;jettySize=auto;html=1;" parent="m2Lsev2go2SQ9onNHyc8-6" source="DAKQLm33R4ar7NBVHNQ8-28" target="DAKQLm33R4ar7NBVHNQ8-29" edge="1">
          <mxGeometry relative="1" as="geometry" />
        </mxCell>
        <mxCell id="DAKQLm33R4ar7NBVHNQ8-30" value="Input: jenisTIket" style="shape=parallelogram;perimeter=parallelogramPerimeter;whiteSpace=wrap;html=1;fixedSize=1;" parent="m2Lsev2go2SQ9onNHyc8-6" vertex="1">
          <mxGeometry x="130" y="200" width="120" height="60" as="geometry" />
        </mxCell>
        <mxCell id="DAKQLm33R4ar7NBVHNQ8-92" value="" style="edgeStyle=orthogonalEdgeStyle;rounded=0;orthogonalLoop=1;jettySize=auto;html=1;" parent="m2Lsev2go2SQ9onNHyc8-6" source="DAKQLm33R4ar7NBVHNQ8-29" target="DAKQLm33R4ar7NBVHNQ8-30" edge="1">
          <mxGeometry relative="1" as="geometry" />
        </mxCell>
        <mxCell id="DAKQLm33R4ar7NBVHNQ8-33" value="jenisTIket==&#39;y" style="rhombus;whiteSpace=wrap;html=1;" parent="m2Lsev2go2SQ9onNHyc8-6" vertex="1">
          <mxGeometry x="149" y="300" width="80" height="80" as="geometry" />
        </mxCell>
        <mxCell id="DAKQLm33R4ar7NBVHNQ8-93" value="" style="edgeStyle=orthogonalEdgeStyle;rounded=0;orthogonalLoop=1;jettySize=auto;html=1;" parent="m2Lsev2go2SQ9onNHyc8-6" source="DAKQLm33R4ar7NBVHNQ8-30" target="DAKQLm33R4ar7NBVHNQ8-33" edge="1">
          <mxGeometry relative="1" as="geometry" />
        </mxCell>
        <mxCell id="DAKQLm33R4ar7NBVHNQ8-35" value="tambahan = 0" style="rounded=0;whiteSpace=wrap;html=1;" parent="m2Lsev2go2SQ9onNHyc8-6" vertex="1">
          <mxGeometry x="255" y="390" width="120" height="60" as="geometry" />
        </mxCell>
        <mxCell id="DAKQLm33R4ar7NBVHNQ8-94" style="edgeStyle=orthogonalEdgeStyle;rounded=0;orthogonalLoop=1;jettySize=auto;html=1;" parent="m2Lsev2go2SQ9onNHyc8-6" source="DAKQLm33R4ar7NBVHNQ8-33" target="DAKQLm33R4ar7NBVHNQ8-35" edge="1">
          <mxGeometry relative="1" as="geometry" />
        </mxCell>
        <mxCell id="DAKQLm33R4ar7NBVHNQ8-36" value="tambahan = 10000" style="rounded=0;whiteSpace=wrap;html=1;" parent="m2Lsev2go2SQ9onNHyc8-6" vertex="1">
          <mxGeometry y="390" width="120" height="60" as="geometry" />
        </mxCell>
        <mxCell id="DAKQLm33R4ar7NBVHNQ8-95" style="edgeStyle=orthogonalEdgeStyle;rounded=0;orthogonalLoop=1;jettySize=auto;html=1;entryX=0.5;entryY=0;entryDx=0;entryDy=0;" parent="m2Lsev2go2SQ9onNHyc8-6" source="DAKQLm33R4ar7NBVHNQ8-33" target="DAKQLm33R4ar7NBVHNQ8-36" edge="1">
          <mxGeometry relative="1" as="geometry" />
        </mxCell>
        <mxCell id="DAKQLm33R4ar7NBVHNQ8-37" value="&lt;div&gt;harga = hargaPerTIket * jumlahTIket&lt;/div&gt;&lt;div&gt;pajak = 0.05 * harga&lt;/div&gt;&lt;div&gt;hargaTotal = harga + pajak + tambahan&lt;br&gt;&lt;/div&gt;" style="rounded=0;whiteSpace=wrap;html=1;" parent="m2Lsev2go2SQ9onNHyc8-6" vertex="1">
          <mxGeometry x="129" y="485" width="120" height="110" as="geometry" />
        </mxCell>
        <mxCell id="DAKQLm33R4ar7NBVHNQ8-96" style="edgeStyle=orthogonalEdgeStyle;rounded=0;orthogonalLoop=1;jettySize=auto;html=1;entryX=1;entryY=0.5;entryDx=0;entryDy=0;" parent="m2Lsev2go2SQ9onNHyc8-6" source="DAKQLm33R4ar7NBVHNQ8-35" target="DAKQLm33R4ar7NBVHNQ8-37" edge="1">
          <mxGeometry relative="1" as="geometry">
            <Array as="points">
              <mxPoint x="315" y="540" />
            </Array>
          </mxGeometry>
        </mxCell>
        <mxCell id="DAKQLm33R4ar7NBVHNQ8-98" style="edgeStyle=orthogonalEdgeStyle;rounded=0;orthogonalLoop=1;jettySize=auto;html=1;entryX=0;entryY=0.5;entryDx=0;entryDy=0;" parent="m2Lsev2go2SQ9onNHyc8-6" source="DAKQLm33R4ar7NBVHNQ8-36" target="DAKQLm33R4ar7NBVHNQ8-37" edge="1">
          <mxGeometry relative="1" as="geometry">
            <Array as="points">
              <mxPoint x="60" y="540" />
            </Array>
          </mxGeometry>
        </mxCell>
        <mxCell id="DAKQLm33R4ar7NBVHNQ8-99" value="&lt;font style=&quot;font-size: 14px;&quot;&gt;Proses Input&lt;br&gt;&lt;/font&gt;" style="ellipse;whiteSpace=wrap;html=1;aspect=fixed;" parent="m2Lsev2go2SQ9onNHyc8-6" vertex="1">
          <mxGeometry x="150" y="640" width="80" height="80" as="geometry" />
        </mxCell>
        <mxCell id="DAKQLm33R4ar7NBVHNQ8-100" value="" style="edgeStyle=orthogonalEdgeStyle;rounded=0;orthogonalLoop=1;jettySize=auto;html=1;" parent="m2Lsev2go2SQ9onNHyc8-6" source="DAKQLm33R4ar7NBVHNQ8-37" target="DAKQLm33R4ar7NBVHNQ8-99" edge="1">
          <mxGeometry relative="1" as="geometry" />
        </mxCell>
      </root>
    </mxGraphModel>
  </diagram>
</mxfile>
